# xmcd
#
# Track frame offsets:
#	150
#	14598
#	23654
#	41583
#	58983
#
# Disc length: 907 seconds
#
# Revision: 2
# Processed by: cddbd v1.5.2PL0 Copyright (c) Steve Scherf et al.
# Submitted via: audiograbber 1.83.01
#
DISCID=3c038905
DTITLE=Wan Light - That Grim Reality [EP]
DYEAR=2005
DGENRE=Indie Dreampop
TTITLE0=That Grim Reality
TTITLE1=About The Circumtances
TTITLE2=Transit
TTITLE3=Future World
TTITLE4=A Lifelong Experience
EXTD=
EXTT0=
EXTT1=
EXTT2=
EXTT3=
EXTT4=
PLAYORDER=
